<svg xmlns="http://www.w3.org/2000/svg" width="512" height="512" viewBox="0 0 512 512" role="img" aria-label="Ligature-wordmark frame archetype — VA ligature on a wordmark frame">
  <title>Ligature-wordmark frame archetype — VA ligature on a wordmark frame</title>
  <desc>Ligature-wordmark frame: a geometric V+A pair joined by a shared crossbar (a true ligature) set on the wordmark frame (baseline, cap line, x-height, left/right sidebearings) with monoline stroke for consistent stroke contrast. Starter construction template, license CC0 / public domain. Adapt the #mark group; delete #construction-grid before shipping.</desc>
  <!-- construction-grid: DELETE this whole group for production use. -->
  <g id="construction-grid" fill="none">
    <path d="M0 0V512 M32 0V512 M64 0V512 M96 0V512 M128 0V512 M160 0V512 M192 0V512 M224 0V512 M256 0V512 M288 0V512 M320 0V512 M352 0V512 M384 0V512 M416 0V512 M448 0V512 M480 0V512 M512 0V512 M0 0H512 M0 32H512 M0 64H512 M0 96H512 M0 128H512 M0 160H512 M0 192H512 M0 224H512 M0 256H512 M0 288H512 M0 320H512 M0 352H512 M0 384H512 M0 416H512 M0 448H512 M0 480H512 M0 512H512" stroke="#23201B" stroke-width="1" opacity="0.08"/>
    <path d="M0 0V512 M128 0V512 M256 0V512 M384 0V512 M512 0V512 M0 0H512 M0 128H512 M0 256H512 M0 384H512 M0 512H512" stroke="#23201B" stroke-width="1" opacity="0.20"/>
    <!-- center cross -->
    <path d="M256 0V512 M0 256H512" stroke="#B4654A" stroke-width="1" opacity="0.30"/>
    <!-- cap line / baseline / x-height (solid) + overshoot guides (dashed) -->
    <path d="M64 96H448 M64 416H448" stroke="#B4654A" stroke-width="1.5" opacity="0.55"/>
    <path d="M64 240H448" stroke="#B4654A" stroke-width="1" opacity="0.35" stroke-dasharray="2 4"/>
    <path d="M64 90H448 M64 422H448" stroke="#B4654A" stroke-width="1" opacity="0.40" stroke-dasharray="6 5"/>
    <!-- clear-space boundary (min 2-unit margin around the mark) -->
    <rect x="64" y="64" width="384" height="384" stroke="#23201B" stroke-width="1.5" stroke-dasharray="6 6" opacity="0.40"/>
  </g>
  <g id="mark">
    <g fill="none" stroke="#23201B" stroke-width="26" stroke-linejoin="round" stroke-linecap="butt">
      <path d="M132 96 L204 416 L276 96"/>
      <path d="M300 416 L372 96 L444 416"/>
      <path d="M225 268 H398"/>
    </g>
    <!-- wordmark sidebearing ticks (part of the FRAME the model fits a real wordmark into) -->
    <g stroke="#B4654A" stroke-width="1.5" opacity="0.55">
      <path d="M120 84 V96 M120 416 V428"/>
      <path d="M456 84 V96 M456 416 V428"/>
    </g>
  </g>
</svg>
