<?xml version="1.0" encoding="UTF-8"?>
<svg xmlns="http://www.w3.org/2000/svg" viewBox="0 0 24 24" width="24" height="24" fill="none" stroke="currentColor" stroke-width="1.75" stroke-linecap="round" stroke-linejoin="round" role="img" aria-label="settings icon"><path d="M10.304 2.653 L 13.696 2.653 L 13.915 5.059 L 16.232 6.175 L 18.25 4.846 L 20.366 7.498 L 18.621 9.17 L 19.193 11.677 L 21.49 12.426 L 20.736 15.734 L 18.34 15.412 L 16.737 17.422 L 17.584 19.686 L 14.527 21.158 L 13.286 19.084 L 10.714 19.084 L 9.473 21.158 L 6.416 19.686 L 7.263 17.422 L 5.66 15.412 L 3.264 15.734 L 2.51 12.426 L 4.807 11.677 L 5.379 9.17 L 3.634 7.498 L 5.75 4.846 L 7.768 6.175 L 10.085 5.059 Z"/><circle cx="12" cy="12" r="3.1"/></svg>
