<svg xmlns="http://www.w3.org/2000/svg" width="1280" height="960" viewBox="0 0 1280 960" role="img" aria-label="hero product photograph placeholder (hero)">
<defs><linearGradient id="hero_hero-product" x1="0" y1="0" x2="1" y2="1"><stop offset="0" stop-color="#e2ccc1"/><stop offset="0.55" stop-color="#90543e"/><stop offset="1" stop-color="#643f30"/></linearGradient><linearGradient id="hero_hero-product_s" x1="0" y1="0" x2="1" y2="0"><stop offset="0" stop-color="#23201B" stop-opacity="0.55"/><stop offset="1" stop-color="#23201B" stop-opacity="0"/></linearGradient><radialGradient id="hero_hero-product_h" cx="0.72" cy="0.32" r="0.5"><stop offset="0" stop-color="#d3aa99" stop-opacity="0.8"/><stop offset="1" stop-color="#B4654A" stop-opacity="0"/></radialGradient></defs><rect width="1280" height="960" fill="url(#hero_hero-product)"/><path d="M 0 595 Q 576 384 1280 557 L 1280 960 L 0 960 Z" fill="#7a4937" fill-opacity="0.45"/><rect width="1280" height="960" fill="url(#hero_hero-product_h)"/><ellipse cx="922" cy="787" rx="250" ry="48" fill="#23201B" fill-opacity="0.28"/><rect x="806" y="326" width="250" height="480" rx="48" fill="#643f30"/><rect x="838" y="384" width="58" height="326" rx="29" fill="#F1EEE8" fill-opacity="0.22"/><rect width="768" height="960" fill="url(#hero_hero-product_s)"/><rect x="90" y="269" width="200" height="32" rx="15" fill="#B4654A"/><rect x="90" y="346" width="560" height="77" rx="12" fill="#F1EEE8" fill-opacity="0.92"/><rect x="90" y="438" width="412" height="77" rx="12" fill="#F1EEE8" fill-opacity="0.92"/><rect x="90" y="546" width="295" height="32" rx="15" fill="#F1EEE8" fill-opacity="0.5"/><rect x="90" y="654" width="271" height="108" rx="54" fill="#B4654A"/><rect x="149" y="693" width="153" height="31" rx="15" fill="#F1EEE8" fill-opacity="0.85"/>
<g><rect x="58" y="835" width="983" height="67" rx="34" fill="#FFFFFF" fill-opacity="0.82"/><circle cx="98" cy="869" r="15" fill="#B4654A"/><text x="127" y="869" dominant-baseline="middle" font-family='-apple-system, BlinkMacSystemFont, "Segoe UI", Helvetica, Arial, sans-serif' font-size="35" font-weight="600" fill="#23201B" fill-opacity="0.85" letter-spacing="0.4">hero product photograph  ·  4:3  ·  placeholder</text></g>
</svg>